<svg id="state-raw-cat" width="5000" height="243" style="background: rgb(238, 238, 238);"><g transform="translate(50, 50)"><g class="state-group-cat" style="fill: rgb(202, 165, 105);"><rect class="state-rect-cat" x="0" y="50" height="80.50746268656715" width="93.19319319319318"></rect><rect class="state-rect-cat" x="98.09809809809809" y="50" height="9.620689655172413" width="93.19319319319318"></rect><rect class="state-rect-cat" x="196.19619619619618" y="50" height="62" width="93.19319319319318"></rect><rect class="state-rect-cat" x="294.2942942942943" y="50" height="78.12" width="93.19319319319318"></rect><rect class="state-rect-cat" x="392.39239239239237" y="50" height="17.63793103448276" width="93.19319319319318"></rect><rect class="state-rect-cat" x="490.49049049049046" y="50" height="47.953125" width="93.19319319319318"></rect><rect class="state-rect-cat" x="588.5885885885886" y="50" height="0" width="93.19319319319318"></rect><rect class="state-rect-cat" x="686.6866866866867" y="50" height="31" width="93.19319319319318"></rect><rect class="state-rect-cat" x="784.7847847847847" y="50" height="54.13432835820896" width="93.19319319319318"></rect><rect class="state-rect-cat" x="882.8828828828828" y="50" height="88.32075471698113" width="93.19319319319318"></rect><rect class="state-rect-cat" x="980.9809809809809" y="50" height="0" width="93.19319319319318"></rect><rect class="state-rect-cat" x="1079.079079079079" y="50" height="50.727272727272734" width="93.19319319319318"></rect><rect class="state-rect-cat" x="1177.177177177177" y="50" height="73.85294117647058" width="93.19319319319318"></rect><rect class="state-rect-cat" x="1275.2752752752751" y="50" height="82.89130434782606" width="93.19319319319318"></rect><rect class="state-rect-cat" x="1373.3733733733734" y="50" height="82.66666666666666" width="93.19319319319318"></rect><rect class="state-rect-cat" x="1471.4714714714714" y="50" height="85.02857142857141" width="93.19319319319318"></rect><rect class="state-rect-cat" x="1569.5695695695695" y="50" height="86.80000000000001" width="93.19319319319318"></rect><rect class="state-rect-cat" x="1667.6676676676675" y="50" height="59.578125" width="93.19319319319318"></rect><rect class="state-rect-cat" x="1765.7657657657655" y="50" height="52.3125" width="93.19319319319318"></rect><rect class="state-rect-cat" x="1863.8638638638638" y="50" height="69.75" width="93.19319319319318"></rect><rect class="state-rect-cat" x="1961.9619619619618" y="50" height="19.92857142857143" width="93.19319319319318"></rect><rect class="state-rect-cat" x="2060.06006006006" y="50" height="48.18072289156626" width="93.19319319319318"></rect><rect class="state-rect-cat" x="2158.158158158158" y="50" height="63.06896551724137" width="93.19319319319318"></rect><rect class="state-rect-cat" x="2256.256256256256" y="50" height="72.58536585365853" width="93.19319319319318"></rect><rect class="state-rect-cat" x="2354.354354354354" y="50" height="77.63478260869564" width="93.19319319319318"></rect><rect class="state-rect-cat" x="2452.4524524524522" y="50" height="46.5" width="93.19319319319318"></rect><rect class="state-rect-cat" x="2550.5505505505503" y="50" height="77" width="93.19319319319318"></rect><rect class="state-rect-cat" x="2648.6486486486483" y="50" height="65.64705882352942" width="93.19319319319318"></rect><rect class="state-rect-cat" x="2746.746746746747" y="50" height="65.1" width="93.19319319319318"></rect><rect class="state-rect-cat" x="2844.844844844845" y="50" height="26.57142857142857" width="93.19319319319318"></rect><rect class="state-rect-cat" x="2942.942942942943" y="50" height="56.363636363636374" width="93.19319319319318"></rect><rect class="state-rect-cat" x="3041.041041041041" y="50" height="58.5" width="93.19319319319318"></rect><rect class="state-rect-cat" x="3139.139139139139" y="50" height="84.63" width="93.19319319319318"></rect><rect class="state-rect-cat" x="3237.237237237237" y="50" height="85.98113207547172" width="93.19319319319318"></rect><rect class="state-rect-cat" x="3335.335335335335" y="50" height="62.352272727272734" width="93.19319319319318"></rect><rect class="state-rect-cat" x="3433.433433433433" y="50" height="74.88311688311688" width="93.19319319319318"></rect><rect class="state-rect-cat" x="3531.531531531531" y="50" height="69.75" width="93.19319319319318"></rect><rect class="state-rect-cat" x="3629.6296296296296" y="50" height="40.253731343283576" width="93.19319319319318"></rect><rect class="state-rect-cat" x="3727.7277277277276" y="50" height="18.599999999999994" width="93.19319319319318"></rect><rect class="state-rect-cat" x="3825.8258258258256" y="50" height="56.60869565217392" width="93.19319319319318"></rect><rect class="state-rect-cat" x="3923.9239239239237" y="50" height="81.72727272727272" width="93.19319319319318"></rect><rect class="state-rect-cat" x="4022.0220220220217" y="50" height="87.1263157894737" width="93.19319319319318"></rect><rect class="state-rect-cat" x="4120.12012012012" y="50" height="78.72047244094489" width="93.19319319319318"></rect><rect class="state-rect-cat" x="4218.218218218218" y="50" height="41.68965517241378" width="93.19319319319318"></rect><rect class="state-rect-cat" x="4316.316316316316" y="50" height="33.21428571428571" width="93.19319319319318"></rect><rect class="state-rect-cat" x="4414.414414414414" y="50" height="58.99253731343285" width="93.19319319319318"></rect><rect class="state-rect-cat" x="4512.512512512512" y="50" height="69.15384615384616" width="93.19319319319318"></rect><rect class="state-rect-cat" x="4610.61061061061" y="50" height="81.16363636363636" width="93.19319319319318"></rect><rect class="state-rect-cat" x="4708.708708708708" y="50" height="55.54166666666666" width="93.19319319319318"></rect><rect class="state-rect-cat" x="4806.806806806807" y="50" height="48.52173913043478" width="93.19319319319318"></rect></g><g class="state-group-cat" style="fill: rgb(104, 188, 143);"><rect class="state-rect-cat" x="0" y="130.50746268656715" height="5.552238805970148" width="93.19319319319318"></rect><rect class="state-rect-cat" x="98.09809809809809" y="59.62068965517241" height="35.27586206896552" width="93.19319319319318"></rect><rect class="state-rect-cat" x="196.19619619619618" y="112" height="24.80000000000001" width="93.19319319319318"></rect><rect class="state-rect-cat" x="294.2942942942943" y="128.12" height="9.919999999999987" width="93.19319319319318"></rect><rect class="state-rect-cat" x="392.39239239239237" y="67.63793103448276" height="36.87931034482757" width="93.19319319319318"></rect><rect class="state-rect-cat" x="490.49049049049046" y="97.953125" height="30.515625" width="93.19319319319318"></rect><rect class="state-rect-cat" x="588.5885885885886" y="50" height="0" width="93.19319319319318"></rect><rect class="state-rect-cat" x="686.6866866866867" y="81" height="0" width="93.19319319319318"></rect><rect class="state-rect-cat" x="784.7847847847847" y="104.13432835820896" height="26.37313432835819" width="93.19319319319318"></rect><rect class="state-rect-cat" x="882.8828828828828" y="138.32075471698113" height="2.924528301886795" width="93.19319319319318"></rect><rect class="state-rect-cat" x="980.9809809809809" y="50" height="37.2" width="93.19319319319318"></rect><rect class="state-rect-cat" x="1079.079079079079" y="100.72727272727273" height="29.59090909090908" width="93.19319319319318"></rect><rect class="state-rect-cat" x="1177.177177177177" y="123.85294117647058" height="8.205882352941188" width="93.19319319319318"></rect><rect class="state-rect-cat" x="1275.2752752752751" y="132.89130434782606" height="6.0652173913043725" width="93.19319319319318"></rect><rect class="state-rect-cat" x="1373.3733733733734" y="132.66666666666666" height="2.8181818181818414" width="93.19319319319318"></rect><rect class="state-rect-cat" x="1471.4714714714714" y="135.0285714285714" height="4.428571428571445" width="93.19319319319318"></rect><rect class="state-rect-cat" x="1569.5695695695695" y="136.8" height="5.424999999999983" width="93.19319319319318"></rect><rect class="state-rect-cat" x="1667.6676676676675" y="109.578125" height="17.4375" width="93.19319319319318"></rect><rect class="state-rect-cat" x="1765.7657657657655" y="102.3125" height="23.25" width="93.19319319319318"></rect><rect class="state-rect-cat" x="1863.8638638638638" y="119.75" height="7.75" width="93.19319319319318"></rect><rect class="state-rect-cat" x="1961.9619619619618" y="69.92857142857143" height="0" width="93.19319319319318"></rect><rect class="state-rect-cat" x="2060.06006006006" y="98.18072289156626" height="34.73493975903614" width="93.19319319319318"></rect><rect class="state-rect-cat" x="2158.158158158158" y="113.06896551724137" height="27.793103448275872" width="93.19319319319318"></rect><rect class="state-rect-cat" x="2256.256256256256" y="122.58536585365853" height="17.012195121951223" width="93.19319319319318"></rect><rect class="state-rect-cat" x="2354.354354354354" y="127.63478260869564" height="10.513043478260869" width="93.19319319319318"></rect><rect class="state-rect-cat" x="2452.4524524524522" y="96.5" height="38.196428571428584" width="93.19319319319318"></rect><rect class="state-rect-cat" x="2550.5505505505503" y="127" height="9" width="93.19319319319318"></rect><rect class="state-rect-cat" x="2648.6486486486483" y="115.64705882352942" height="10.941176470588232" width="93.19319319319318"></rect><rect class="state-rect-cat" x="2746.746746746747" y="115.1" height="18.600000000000023" width="93.19319319319318"></rect><rect class="state-rect-cat" x="2844.844844844845" y="76.57142857142857" height="22.142857142857153" width="93.19319319319318"></rect><rect class="state-rect-cat" x="2942.942942942943" y="106.36363636363637" height="14.09090909090908" width="93.19319319319318"></rect><rect class="state-rect-cat" x="3041.041041041041" y="108.5" height="21" width="93.19319319319318"></rect><rect class="state-rect-cat" x="3139.139139139139" y="134.63" height="3.719999999999999" width="93.19319319319318"></rect><rect class="state-rect-cat" x="3237.237237237237" y="135.98113207547172" height="1.7547169811320487" width="93.19319319319318"></rect><rect class="state-rect-cat" x="3335.335335335335" y="112.35227272727273" height="19.022727272727266" width="93.19319319319318"></rect><rect class="state-rect-cat" x="3433.433433433433" y="124.88311688311688" height="8.454545454545439" width="93.19319319319318"></rect><rect class="state-rect-cat" x="3531.531531531531" y="119.75" height="18.083333333333314" width="93.19319319319318"></rect><rect class="state-rect-cat" x="3629.6296296296296" y="90.25373134328358" height="26.37313432835822" width="93.19319319319318"></rect><rect class="state-rect-cat" x="3727.7277277277276" y="68.6" height="0" width="93.19319319319318"></rect><rect class="state-rect-cat" x="3825.8258258258256" y="106.60869565217392" height="6.06521739130433" width="93.19319319319318"></rect><rect class="state-rect-cat" x="3923.9239239239237" y="131.72727272727272" height="7.045454545454561" width="93.19319319319318"></rect><rect class="state-rect-cat" x="4022.0220220220217" y="137.1263157894737" height="3.915789473684214" width="93.19319319319318"></rect><rect class="state-rect-cat" x="4120.12012012012" y="128.7204724409449" height="9.88582677165354" width="93.19319319319318"></rect><rect class="state-rect-cat" x="4218.218218218218" y="91.68965517241378" height="38.48275862068965" width="93.19319319319318"></rect><rect class="state-rect-cat" x="4316.316316316316" y="83.21428571428571" height="6.642857142857153" width="93.19319319319318"></rect><rect class="state-rect-cat" x="4414.414414414414" y="108.99253731343285" height="8.328358208955223" width="93.19319319319318"></rect><rect class="state-rect-cat" x="4512.512512512512" y="119.15384615384616" height="19.076923076923066" width="93.19319319319318"></rect><rect class="state-rect-cat" x="4610.61061061061" y="131.16363636363636" height="10.145454545454555" width="93.19319319319318"></rect><rect class="state-rect-cat" x="4708.708708708708" y="105.54166666666666" height="23.25" width="93.19319319319318"></rect><rect class="state-rect-cat" x="4806.806806806807" y="98.52173913043478" height="36.39130434782609" width="93.19319319319318"></rect></g><g class="state-group-cat" style="fill: rgb(119, 178, 224);"><rect class="state-rect-cat" x="0" y="136.0597014925373" height="4.164179104477654" width="93.19319319319318"></rect><rect class="state-rect-cat" x="98.09809809809809" y="94.89655172413794" height="41.68965517241378" width="93.19319319319318"></rect><rect class="state-rect-cat" x="196.19619619619618" y="136.8" height="6.199999999999989" width="93.19319319319318"></rect><rect class="state-rect-cat" x="294.2942942942943" y="138.04" height="1.240000000000009" width="93.19319319319318"></rect><rect class="state-rect-cat" x="392.39239239239237" y="104.51724137931033" height="22.448275862068968" width="93.19319319319318"></rect><rect class="state-rect-cat" x="490.49049049049046" y="128.46875" height="14.53125" width="93.19319319319318"></rect><rect class="state-rect-cat" x="588.5885885885886" y="50" height="93" width="93.19319319319318"></rect><rect class="state-rect-cat" x="686.6866866866867" y="81" height="62" width="93.19319319319318"></rect><rect class="state-rect-cat" x="784.7847847847847" y="130.50746268656715" height="6.9402985074627" width="93.19319319319318"></rect><rect class="state-rect-cat" x="882.8828828828828" y="141.24528301886792" height="0.584905660377359" width="93.19319319319318"></rect><rect class="state-rect-cat" x="980.9809809809809" y="87.2" height="55.8" width="93.19319319319318"></rect><rect class="state-rect-cat" x="1079.079079079079" y="130.3181818181818" height="4.227272727272748" width="93.19319319319318"></rect><rect class="state-rect-cat" x="1177.177177177177" y="132.05882352941177" height="10.029411764705884" width="93.19319319319318"></rect><rect class="state-rect-cat" x="1275.2752752752751" y="138.95652173913044" height="3.032608695652158" width="93.19319319319318"></rect><rect class="state-rect-cat" x="1373.3733733733734" y="135.4848484848485" height="1.8787878787878753" width="93.19319319319318"></rect><rect class="state-rect-cat" x="1471.4714714714714" y="139.45714285714286" height="3.5428571428571445" width="93.19319319319318"></rect><rect class="state-rect-cat" x="1569.5695695695695" y="142.225" height="0" width="93.19319319319318"></rect><rect class="state-rect-cat" x="1667.6676676676675" y="127.015625" height="10.171875" width="93.19319319319318"></rect><rect class="state-rect-cat" x="1765.7657657657655" y="125.5625" height="17.4375" width="93.19319319319318"></rect><rect class="state-rect-cat" x="1863.8638638638638" y="127.5" height="15.5" width="93.19319319319318"></rect><rect class="state-rect-cat" x="1961.9619619619618" y="69.92857142857143" height="66.42857142857143" width="93.19319319319318"></rect><rect class="state-rect-cat" x="2060.06006006006" y="132.9156626506024" height="5.602409638554235" width="93.19319319319318"></rect><rect class="state-rect-cat" x="2158.158158158158" y="140.86206896551724" height="2.1379310344827616" width="93.19319319319318"></rect><rect class="state-rect-cat" x="2256.256256256256" y="139.59756097560975" height="1.1341463414634063" width="93.19319319319318"></rect><rect class="state-rect-cat" x="2354.354354354354" y="138.1478260869565" height="4.852173913043487" width="93.19319319319318"></rect><rect class="state-rect-cat" x="2452.4524524524522" y="134.69642857142858" height="3.321428571428555" width="93.19319319319318"></rect><rect class="state-rect-cat" x="2550.5505505505503" y="136" height="4.000000000000028" width="93.19319319319318"></rect><rect class="state-rect-cat" x="2648.6486486486483" y="126.58823529411765" height="10.941176470588232" width="93.19319319319318"></rect><rect class="state-rect-cat" x="2746.746746746747" y="133.70000000000002" height="9.299999999999983" width="93.19319319319318"></rect><rect class="state-rect-cat" x="2844.844844844845" y="98.71428571428572" height="31" width="93.19319319319318"></rect><rect class="state-rect-cat" x="2942.942942942943" y="120.45454545454545" height="16.90909090909092" width="93.19319319319318"></rect><rect class="state-rect-cat" x="3041.041041041041" y="129.5" height="12" width="93.19319319319318"></rect><rect class="state-rect-cat" x="3139.139139139139" y="138.35" height="1.8600000000000136" width="93.19319319319318"></rect><rect class="state-rect-cat" x="3237.237237237237" y="137.73584905660377" height="3.509433962264154" width="93.19319319319318"></rect><rect class="state-rect-cat" x="3335.335335335335" y="131.375" height="8.454545454545439" width="93.19319319319318"></rect><rect class="state-rect-cat" x="3433.433433433433" y="133.33766233766232" height="4.8311688311688386" width="93.19319319319318"></rect><rect class="state-rect-cat" x="3531.531531531531" y="137.83333333333331" height="5.166666666666686" width="93.19319319319318"></rect><rect class="state-rect-cat" x="3629.6296296296296" y="116.6268656716418" height="18.044776119402982" width="93.19319319319318"></rect><rect class="state-rect-cat" x="3727.7277277277276" y="68.6" height="74.4" width="93.19319319319318"></rect><rect class="state-rect-cat" x="3825.8258258258256" y="112.67391304347825" height="22.239130434782624" width="93.19319319319318"></rect><rect class="state-rect-cat" x="3923.9239239239237" y="138.77272727272728" height="1.409090909090878" width="93.19319319319318"></rect><rect class="state-rect-cat" x="4022.0220220220217" y="141.0421052631579" height="0.9789473684210463" width="93.19319319319318"></rect><rect class="state-rect-cat" x="4120.12012012012" y="138.60629921259843" height="2.196850393700771" width="93.19319319319318"></rect><rect class="state-rect-cat" x="4218.218218218218" y="130.17241379310343" height="6.413793103448285" width="93.19319319319318"></rect><rect class="state-rect-cat" x="4316.316316316316" y="89.85714285714286" height="46.5" width="93.19319319319318"></rect><rect class="state-rect-cat" x="4414.414414414414" y="117.32089552238807" height="22.208955223880594" width="93.19319319319318"></rect><rect class="state-rect-cat" x="4512.512512512512" y="138.23076923076923" height="2.384615384615387" width="93.19319319319318"></rect><rect class="state-rect-cat" x="4610.61061061061" y="141.3090909090909" height="1.6909090909090878" width="93.19319319319318"></rect><rect class="state-rect-cat" x="4708.708708708708" y="128.79166666666666" height="5.166666666666686" width="93.19319319319318"></rect><rect class="state-rect-cat" x="4806.806806806807" y="134.91304347826087" height="8.086956521739125" width="93.19319319319318"></rect></g><g class="state-group-cat" style="fill: rgb(219, 147, 199);"><rect class="state-rect-cat" x="0" y="140.22388059701495" height="2.776119402985046" width="93.19319319319318"></rect><rect class="state-rect-cat" x="98.09809809809809" y="136.58620689655172" height="0" width="93.19319319319318"></rect><rect class="state-rect-cat" x="196.19619619619618" y="143" height="0" width="93.19319319319318"></rect><rect class="state-rect-cat" x="294.2942942942943" y="139.28" height="3.719999999999999" width="93.19319319319318"></rect><rect class="state-rect-cat" x="392.39239239239237" y="126.9655172413793" height="9.620689655172413" width="93.19319319319318"></rect><rect class="state-rect-cat" x="490.49049049049046" y="143" height="0" width="93.19319319319318"></rect><rect class="state-rect-cat" x="588.5885885885886" y="143" height="0" width="93.19319319319318"></rect><rect class="state-rect-cat" x="686.6866866866867" y="143" height="0" width="93.19319319319318"></rect><rect class="state-rect-cat" x="784.7847847847847" y="137.44776119402985" height="4.164179104477597" width="93.19319319319318"></rect><rect class="state-rect-cat" x="882.8828828828828" y="141.83018867924528" height="1.169811320754718" width="93.19319319319318"></rect><rect class="state-rect-cat" x="980.9809809809809" y="143" height="0" width="93.19319319319318"></rect><rect class="state-rect-cat" x="1079.079079079079" y="134.54545454545456" height="6.340909090909065" width="93.19319319319318"></rect><rect class="state-rect-cat" x="1177.177177177177" y="142.08823529411765" height="0.9117647058823479" width="93.19319319319318"></rect><rect class="state-rect-cat" x="1275.2752752752751" y="141.9891304347826" height="1.010869565217405" width="93.19319319319318"></rect><rect class="state-rect-cat" x="1373.3733733733734" y="137.36363636363637" height="3.7575757575757507" width="93.19319319319318"></rect><rect class="state-rect-cat" x="1471.4714714714714" y="143" height="0" width="93.19319319319318"></rect><rect class="state-rect-cat" x="1569.5695695695695" y="142.225" height="0.7750000000000057" width="93.19319319319318"></rect><rect class="state-rect-cat" x="1667.6676676676675" y="137.1875" height="2.90625" width="93.19319319319318"></rect><rect class="state-rect-cat" x="1765.7657657657655" y="143" height="0" width="93.19319319319318"></rect><rect class="state-rect-cat" x="1863.8638638638638" y="143" height="0" width="93.19319319319318"></rect><rect class="state-rect-cat" x="1961.9619619619618" y="136.35714285714286" height="0" width="93.19319319319318"></rect><rect class="state-rect-cat" x="2060.06006006006" y="138.51807228915663" height="3.3614457831324955" width="93.19319319319318"></rect><rect class="state-rect-cat" x="2158.158158158158" y="143" height="0" width="93.19319319319318"></rect><rect class="state-rect-cat" x="2256.256256256256" y="140.73170731707316" height="2.268292682926841" width="93.19319319319318"></rect><rect class="state-rect-cat" x="2354.354354354354" y="143" height="0" width="93.19319319319318"></rect><rect class="state-rect-cat" x="2452.4524524524522" y="138.01785714285714" height="4.982142857142861" width="93.19319319319318"></rect><rect class="state-rect-cat" x="2550.5505505505503" y="140.00000000000003" height="2.9999999999999716" width="93.19319319319318"></rect><rect class="state-rect-cat" x="2648.6486486486483" y="137.52941176470588" height="5.470588235294116" width="93.19319319319318"></rect><rect class="state-rect-cat" x="2746.746746746747" y="143" height="0" width="93.19319319319318"></rect><rect class="state-rect-cat" x="2844.844844844845" y="129.71428571428572" height="8.857142857142833" width="93.19319319319318"></rect><rect class="state-rect-cat" x="2942.942942942943" y="137.36363636363637" height="2.8181818181817846" width="93.19319319319318"></rect><rect class="state-rect-cat" x="3041.041041041041" y="141.5" height="0" width="93.19319319319318"></rect><rect class="state-rect-cat" x="3139.139139139139" y="140.21" height="1.8599999999999852" width="93.19319319319318"></rect><rect class="state-rect-cat" x="3237.237237237237" y="141.24528301886792" height="1.754716981132077" width="93.19319319319318"></rect><rect class="state-rect-cat" x="3335.335335335335" y="139.82954545454544" height="1.056818181818187" width="93.19319319319318"></rect><rect class="state-rect-cat" x="3433.433433433433" y="138.16883116883116" height="2.4155844155844193" width="93.19319319319318"></rect><rect class="state-rect-cat" x="3531.531531531531" y="143" height="0" width="93.19319319319318"></rect><rect class="state-rect-cat" x="3629.6296296296296" y="134.67164179104478" height="5.552238805970177" width="93.19319319319318"></rect><rect class="state-rect-cat" x="3727.7277277277276" y="143" height="0" width="93.19319319319318"></rect><rect class="state-rect-cat" x="3825.8258258258256" y="134.91304347826087" height="4.043478260869563" width="93.19319319319318"></rect><rect class="state-rect-cat" x="3923.9239239239237" y="140.18181818181816" height="2.8181818181818414" width="93.19319319319318"></rect><rect class="state-rect-cat" x="4022.0220220220217" y="142.02105263157895" height="0" width="93.19319319319318"></rect><rect class="state-rect-cat" x="4120.12012012012" y="140.8031496062992" height="1.8307086614173613" width="93.19319319319318"></rect><rect class="state-rect-cat" x="4218.218218218218" y="136.58620689655172" height="0" width="93.19319319319318"></rect><rect class="state-rect-cat" x="4316.316316316316" y="136.35714285714286" height="0" width="93.19319319319318"></rect><rect class="state-rect-cat" x="4414.414414414414" y="139.52985074626866" height="1.3880597014925513" width="93.19319319319318"></rect><rect class="state-rect-cat" x="4512.512512512512" y="140.6153846153846" height="0" width="93.19319319319318"></rect><rect class="state-rect-cat" x="4610.61061061061" y="143" height="0" width="93.19319319319318"></rect><rect class="state-rect-cat" x="4708.708708708708" y="133.95833333333334" height="5.166666666666686" width="93.19319319319318"></rect><rect class="state-rect-cat" x="4806.806806806807" y="143" height="0" width="93.19319319319318"></rect></g><g class="state-group-cat" style="fill: rgb(174, 174, 174);"><rect class="state-rect-cat" x="0" y="143" height="0" width="93.19319319319318"></rect><rect class="state-rect-cat" x="98.09809809809809" y="136.58620689655172" height="6.413793103448285" width="93.19319319319318"></rect><rect class="state-rect-cat" x="196.19619619619618" y="143" height="0" width="93.19319319319318"></rect><rect class="state-rect-cat" x="294.2942942942943" y="143" height="0" width="93.19319319319318"></rect><rect class="state-rect-cat" x="392.39239239239237" y="136.58620689655172" height="6.413793103448285" width="93.19319319319318"></rect><rect class="state-rect-cat" x="490.49049049049046" y="143" height="0" width="93.19319319319318"></rect><rect class="state-rect-cat" x="588.5885885885886" y="143" height="0" width="93.19319319319318"></rect><rect class="state-rect-cat" x="686.6866866866867" y="143" height="0" width="93.19319319319318"></rect><rect class="state-rect-cat" x="784.7847847847847" y="141.61194029850745" height="1.3880597014925513" width="93.19319319319318"></rect><rect class="state-rect-cat" x="882.8828828828828" y="143" height="0" width="93.19319319319318"></rect><rect class="state-rect-cat" x="980.9809809809809" y="143" height="0" width="93.19319319319318"></rect><rect class="state-rect-cat" x="1079.079079079079" y="140.88636363636363" height="2.113636363636374" width="93.19319319319318"></rect><rect class="state-rect-cat" x="1177.177177177177" y="143" height="0" width="93.19319319319318"></rect><rect class="state-rect-cat" x="1275.2752752752751" y="143" height="0" width="93.19319319319318"></rect><rect class="state-rect-cat" x="1373.3733733733734" y="141.12121212121212" height="1.8787878787878753" width="93.19319319319318"></rect><rect class="state-rect-cat" x="1471.4714714714714" y="143" height="0" width="93.19319319319318"></rect><rect class="state-rect-cat" x="1569.5695695695695" y="143" height="0" width="93.19319319319318"></rect><rect class="state-rect-cat" x="1667.6676676676675" y="140.09375" height="2.90625" width="93.19319319319318"></rect><rect class="state-rect-cat" x="1765.7657657657655" y="143" height="0" width="93.19319319319318"></rect><rect class="state-rect-cat" x="1863.8638638638638" y="143" height="0" width="93.19319319319318"></rect><rect class="state-rect-cat" x="1961.9619619619618" y="136.35714285714286" height="6.642857142857139" width="93.19319319319318"></rect><rect class="state-rect-cat" x="2060.06006006006" y="141.87951807228913" height="1.1204819277108697" width="93.19319319319318"></rect><rect class="state-rect-cat" x="2158.158158158158" y="143" height="0" width="93.19319319319318"></rect><rect class="state-rect-cat" x="2256.256256256256" y="143" height="0" width="93.19319319319318"></rect><rect class="state-rect-cat" x="2354.354354354354" y="143" height="0" width="93.19319319319318"></rect><rect class="state-rect-cat" x="2452.4524524524522" y="143" height="0" width="93.19319319319318"></rect><rect class="state-rect-cat" x="2550.5505505505503" y="143" height="0" width="93.19319319319318"></rect><rect class="state-rect-cat" x="2648.6486486486483" y="143" height="0" width="93.19319319319318"></rect><rect class="state-rect-cat" x="2746.746746746747" y="143" height="0" width="93.19319319319318"></rect><rect class="state-rect-cat" x="2844.844844844845" y="138.57142857142856" height="4.428571428571445" width="93.19319319319318"></rect><rect class="state-rect-cat" x="2942.942942942943" y="140.18181818181816" height="2.8181818181818414" width="93.19319319319318"></rect><rect class="state-rect-cat" x="3041.041041041041" y="141.5" height="1.5" width="93.19319319319318"></rect><rect class="state-rect-cat" x="3139.139139139139" y="142.07" height="0.9300000000000068" width="93.19319319319318"></rect><rect class="state-rect-cat" x="3237.237237237237" y="143" height="0" width="93.19319319319318"></rect><rect class="state-rect-cat" x="3335.335335335335" y="140.88636363636363" height="2.113636363636374" width="93.19319319319318"></rect><rect class="state-rect-cat" x="3433.433433433433" y="140.58441558441558" height="2.4155844155844193" width="93.19319319319318"></rect><rect class="state-rect-cat" x="3531.531531531531" y="143" height="0" width="93.19319319319318"></rect><rect class="state-rect-cat" x="3629.6296296296296" y="140.22388059701495" height="2.776119402985046" width="93.19319319319318"></rect><rect class="state-rect-cat" x="3727.7277277277276" y="143" height="0" width="93.19319319319318"></rect><rect class="state-rect-cat" x="3825.8258258258256" y="138.95652173913044" height="4.043478260869563" width="93.19319319319318"></rect><rect class="state-rect-cat" x="3923.9239239239237" y="143" height="0" width="93.19319319319318"></rect><rect class="state-rect-cat" x="4022.0220220220217" y="142.02105263157895" height="0.9789473684210463" width="93.19319319319318"></rect><rect class="state-rect-cat" x="4120.12012012012" y="142.63385826771656" height="0.36614173228343816" width="93.19319319319318"></rect><rect class="state-rect-cat" x="4218.218218218218" y="136.58620689655172" height="6.413793103448285" width="93.19319319319318"></rect><rect class="state-rect-cat" x="4316.316316316316" y="136.35714285714286" height="6.642857142857139" width="93.19319319319318"></rect><rect class="state-rect-cat" x="4414.414414414414" y="140.91791044776122" height="2.0820895522387843" width="93.19319319319318"></rect><rect class="state-rect-cat" x="4512.512512512512" y="140.6153846153846" height="2.384615384615387" width="93.19319319319318"></rect><rect class="state-rect-cat" x="4610.61061061061" y="143" height="0" width="93.19319319319318"></rect><rect class="state-rect-cat" x="4708.708708708708" y="139.12500000000003" height="3.8749999999999716" width="93.19319319319318"></rect><rect class="state-rect-cat" x="4806.806806806807" y="143" height="0" width="93.19319319319318"></rect></g><text class="state-label-cat" x="2" y="158" font-size="9">AL</text><text class="state-label-cat" x="100.09809809809809" y="158" font-size="9">AK</text><text class="state-label-cat" x="198.19619619619618" y="158" font-size="9">AZ</text><text class="state-label-cat" x="296.2942942942943" y="158" font-size="9">AR</text><text class="state-label-cat" x="394.39239239239237" y="158" font-size="9">CA</text><text class="state-label-cat" x="492.49049049049046" y="158" font-size="9">CO</text><text class="state-label-cat" x="590.5885885885886" y="158" font-size="9">CT</text><text class="state-label-cat" x="688.6866866866867" y="158" font-size="9">DE</text><text class="state-label-cat" x="786.7847847847847" y="158" font-size="9">FL</text><text class="state-label-cat" x="884.8828828828828" y="158" font-size="9">GA</text><text class="state-label-cat" x="982.9809809809809" y="158" font-size="9">HI</text><text class="state-label-cat" x="1081.079079079079" y="158" font-size="9">ID</text><text class="state-label-cat" x="1179.177177177177" y="158" font-size="9">IL</text><text class="state-label-cat" x="1277.2752752752751" y="158" font-size="9">IN</text><text class="state-label-cat" x="1375.3733733733734" y="158" font-size="9">IA</text><text class="state-label-cat" x="1473.4714714714714" y="158" font-size="9">KS</text><text class="state-label-cat" x="1571.5695695695695" y="158" font-size="9">KY</text><text class="state-label-cat" x="1669.6676676676675" y="158" font-size="9">LA</text><text class="state-label-cat" x="1767.7657657657655" y="158" font-size="9">ME</text><text class="state-label-cat" x="1865.8638638638638" y="158" font-size="9">ML</text><text class="state-label-cat" x="1963.9619619619618" y="158" font-size="9">MA</text><text class="state-label-cat" x="2062.06006006006" y="158" font-size="9">MI</text><text class="state-label-cat" x="2160.158158158158" y="158" font-size="9">MN</text><text class="state-label-cat" x="2258.256256256256" y="158" font-size="9">MS</text><text class="state-label-cat" x="2356.354354354354" y="158" font-size="9">MO</text><text class="state-label-cat" x="2454.4524524524522" y="158" font-size="9">MT</text><text class="state-label-cat" x="2552.5505505505503" y="158" font-size="9">NE</text><text class="state-label-cat" x="2650.6486486486483" y="158" font-size="9">NV</text><text class="state-label-cat" x="2748.746746746747" y="158" font-size="9">NH</text><text class="state-label-cat" x="2846.844844844845" y="158" font-size="9">NJ</text><text class="state-label-cat" x="2944.942942942943" y="158" font-size="9">NM</text><text class="state-label-cat" x="3043.041041041041" y="158" font-size="9">NY</text><text class="state-label-cat" x="3141.139139139139" y="158" font-size="9">NC</text><text class="state-label-cat" x="3239.237237237237" y="158" font-size="9">ND</text><text class="state-label-cat" x="3337.335335335335" y="158" font-size="9">OH</text><text class="state-label-cat" x="3435.433433433433" y="158" font-size="9">OK</text><text class="state-label-cat" x="3533.531531531531" y="158" font-size="9">OR</text><text class="state-label-cat" x="3631.6296296296296" y="158" font-size="9">PA</text><text class="state-label-cat" x="3729.7277277277276" y="158" font-size="9">RI</text><text class="state-label-cat" x="3827.8258258258256" y="158" font-size="9">SC</text><text class="state-label-cat" x="3925.9239239239237" y="158" font-size="9">SD</text><text class="state-label-cat" x="4024.0220220220217" y="158" font-size="9">TN</text><text class="state-label-cat" x="4122.12012012012" y="158" font-size="9">TX</text><text class="state-label-cat" x="4220.218218218218" y="158" font-size="9">UT</text><text class="state-label-cat" x="4318.316316316316" y="158" font-size="9">VT</text><text class="state-label-cat" x="4416.414414414414" y="158" font-size="9">VA</text><text class="state-label-cat" x="4514.512512512512" y="158" font-size="9">WA</text><text class="state-label-cat" x="4612.61061061061" y="158" font-size="9">WV</text><text class="state-label-cat" x="4710.708708708708" y="158" font-size="9">WI</text><text class="state-label-cat" x="4808.806806806807" y="158" font-size="9">WY</text></g></svg>
