<?xml version="1.0" encoding="utf-8"?>
<!-- Generator: Adobe Illustrator 26.0.1, SVG Export Plug-In . SVG Version: 6.00 Build 0)  -->
<svg version="1.1" id="state-raw-lang" xmlns="http://www.w3.org/2000/svg" xmlns:xlink="http://www.w3.org/1999/xlink" x="0px"
	 y="0px" viewBox="0 0 5000 243" style="enable-background:new 0 0 5000 243;" xml:space="preserve">
<style type="text/css">
	.st0{fill:#BB9EE4;}
	.st1{fill:#A0B363;}
	.st2{font-family:'WorkSans-Bold';}
	.st3{font-size:17px;}
</style>
<rect x="50" y="100" class="st0" width="93.2" height="77.7"/>
<rect x="148.1" y="100" class="st0" width="93.2" height="44.9"/>
<rect x="246.2" y="100" class="st0" width="93.2" height="31"/>
<rect x="344.3" y="100" class="st0" width="93.2" height="89.3"/>
<rect x="442.4" y="100" class="st0" width="93.2" height="73.8"/>
<rect x="540.5" y="100" class="st0" width="93.2" height="82.8"/>
<rect x="638.6" y="100" class="st0" width="93.2" height="93"/>
<rect x="736.7" y="100" class="st0" width="93.2" height="93"/>
<rect x="834.8" y="100" class="st0" width="93.2" height="79.1"/>
<rect x="932.9" y="100" class="st0" width="93.2" height="88.3"/>
<polygon class="st0" points="1031,100 1124.2,100 1124.2,100 "/>
<rect x="1129.1" y="100" class="st0" width="93.2" height="71.9"/>
<rect x="1227.2" y="100" class="st0" width="93.2" height="86.6"/>
<rect x="1325.3" y="100" class="st0" width="93.2" height="87.9"/>
<rect x="1423.4" y="100" class="st0" width="93.2" height="75.2"/>
<rect x="1521.5" y="100" class="st0" width="93.2" height="81.5"/>
<rect x="1619.6" y="100" class="st0" width="93.2" height="92.2"/>
<rect x="1717.7" y="100" class="st0" width="93.2" height="78.5"/>
<rect x="1815.8" y="100" class="st0" width="93.2" height="58.1"/>
<rect x="2012" y="100" class="st0" width="93.2" height="86.4"/>
<rect x="2110.1" y="100" class="st0" width="93.2" height="60.5"/>
<rect x="2208.2" y="100" class="st0" width="93.2" height="78"/>
<rect x="2306.3" y="100" class="st0" width="93.2" height="71.5"/>
<rect x="2404.4" y="100" class="st0" width="93.2" height="89"/>
<rect x="2502.5" y="100" class="st0" width="93.2" height="89.7"/>
<rect x="2600.6" y="100" class="st0" width="93.2" height="86"/>
<rect x="2698.6" y="100" class="st0" width="93.2" height="82.1"/>
<rect x="2796.7" y="100" class="st0" width="93.2" height="74.4"/>
<rect x="2894.8" y="100" class="st0" width="93.2" height="88.6"/>
<rect x="2992.9" y="100" class="st0" width="93.2" height="90.2"/>
<rect x="3091" y="100" class="st0" width="93.2" height="66"/>
<rect x="3189.1" y="100" class="st0" width="93.2" height="83.7"/>
<rect x="3287.2" y="100" class="st0" width="93.2" height="89.5"/>
<rect x="3385.3" y="100" class="st0" width="93.2" height="75"/>
<rect x="3483.4" y="100" class="st0" width="93.2" height="68.8"/>
<rect x="3581.5" y="100" class="st0" width="93.2" height="69.8"/>
<rect x="3679.6" y="100" class="st0" width="93.2" height="81.9"/>
<rect x="3777.7" y="100" class="st0" width="93.2" height="93"/>
<rect x="3875.8" y="100" class="st0" width="93.2" height="89"/>
<rect x="3973.9" y="100" class="st0" width="93.2" height="88.8"/>
<rect x="4072" y="100" class="st0" width="93.2" height="90.1"/>
<rect x="4170.1" y="100" class="st0" width="93.2" height="91.2"/>
<rect x="4268.2" y="100" class="st0" width="93.2" height="73.8"/>
<rect x="4366.3" y="100" class="st0" width="93.2" height="93"/>
<rect x="4464.4" y="100" class="st0" width="93.2" height="85.4"/>
<rect x="4562.5" y="100" class="st0" width="93.2" height="54.8"/>
<rect x="4660.6" y="100" class="st0" width="93.2" height="82.9"/>
<rect x="4758.7" y="100" class="st0" width="93.2" height="69.8"/>
<rect x="4856.8" y="100" class="st0" width="93.2" height="76.8"/>
<rect x="50" y="177.7" class="st1" width="93.2" height="15.3"/>
<rect x="148.1" y="144.9" class="st1" width="93.2" height="48.1"/>
<rect x="246.2" y="131" class="st1" width="93.2" height="62"/>
<rect x="344.3" y="189.3" class="st1" width="93.2" height="3.7"/>
<rect x="442.4" y="173.8" class="st1" width="93.2" height="19.2"/>
<rect x="540.5" y="182.8" class="st1" width="93.2" height="10.2"/>
<polygon class="st1" points="638.6,193 731.8,193 731.8,193 "/>
<polygon class="st1" points="736.7,193 829.9,193 829.9,193 "/>
<rect x="834.8" y="179.1" class="st1" width="93.2" height="13.9"/>
<rect x="932.9" y="188.3" class="st1" width="93.2" height="4.7"/>
<rect x="1031" y="100" class="st1" width="93.2" height="93"/>
<rect x="1129.1" y="171.9" class="st1" width="93.2" height="21.1"/>
<rect x="1227.2" y="186.6" class="st1" width="93.2" height="6.4"/>
<rect x="1325.3" y="187.9" class="st1" width="93.2" height="5.1"/>
<rect x="1423.4" y="175.2" class="st1" width="93.2" height="17.8"/>
<rect x="1521.5" y="181.5" class="st1" width="93.2" height="11.5"/>
<rect x="1619.6" y="192.2" class="st1" width="93.2" height="0.8"/>
<rect x="1717.7" y="178.5" class="st1" width="93.2" height="14.5"/>
<rect x="1815.8" y="158.1" class="st1" width="93.2" height="34.9"/>
<rect x="2012" y="186.4" class="st1" width="93.2" height="6.6"/>
<rect x="2110.1" y="160.5" class="st1" width="93.2" height="32.5"/>
<rect x="2208.2" y="178" class="st1" width="93.2" height="15"/>
<rect x="2306.3" y="171.5" class="st1" width="93.2" height="21.5"/>
<rect x="2404.4" y="189" class="st1" width="93.2" height="4"/>
<rect x="2502.5" y="189.7" class="st1" width="93.2" height="3.3"/>
<rect x="2600.6" y="186" class="st1" width="93.2" height="7"/>
<rect x="2698.6" y="182.1" class="st1" width="93.2" height="10.9"/>
<rect x="2796.7" y="174.4" class="st1" width="93.2" height="18.6"/>
<rect x="2894.8" y="188.6" class="st1" width="93.2" height="4.4"/>
<rect x="2992.9" y="190.2" class="st1" width="93.2" height="2.8"/>
<rect x="3091" y="166" class="st1" width="93.2" height="27"/>
<rect x="3189.1" y="183.7" class="st1" width="93.2" height="9.3"/>
<rect x="3287.2" y="189.5" class="st1" width="93.2" height="3.5"/>
<rect x="3385.3" y="175" class="st1" width="93.2" height="18"/>
<rect x="3483.4" y="168.8" class="st1" width="93.2" height="24.2"/>
<rect x="3581.5" y="169.8" class="st1" width="93.2" height="23.2"/>
<rect x="3679.6" y="181.9" class="st1" width="93.2" height="11.1"/>
<polygon class="st1" points="3777.7,193 3870.9,193 3870.9,193 "/>
<rect x="3875.8" y="189" class="st1" width="93.2" height="4"/>
<rect x="3973.9" y="188.8" class="st1" width="93.2" height="4.2"/>
<rect x="4072" y="190.1" class="st1" width="93.2" height="2.9"/>
<rect x="4170.1" y="191.2" class="st1" width="93.2" height="1.8"/>
<rect x="4268.2" y="173.8" class="st1" width="93.2" height="19.2"/>
<polygon class="st1" points="4366.3,193 4459.5,193 4459.5,193 "/>
<rect x="4464.4" y="185.4" class="st1" width="93.2" height="7.6"/>
<rect x="4562.5" y="154.8" class="st1" width="93.2" height="38.2"/>
<rect x="4660.6" y="182.9" class="st1" width="93.2" height="10.1"/>
<rect x="4758.7" y="169.8" class="st1" width="93.2" height="23.2"/>
<rect x="4856.8" y="176.8" class="st1" width="93.2" height="16.2"/>
<text transform="matrix(1 0 0 1 50 209)" class="st2 st3">AL</text>
<text transform="matrix(1 0 0 1 148.0981 209)" class="st2 st3">AK</text>
<text transform="matrix(1 0 0 1 246.1962 209)" class="st2 st3">AZ</text>
<text transform="matrix(1 0 0 1 344.2943 209)" class="st2 st3">AR</text>
<text transform="matrix(1 0 0 1 442.3924 209)" class="st2 st3">CA</text>
<text transform="matrix(1 0 0 1 540.4905 209)" class="st2 st3">CO</text>
<text transform="matrix(1 0 0 1 638.5886 209)" class="st2 st3">CT</text>
<text transform="matrix(1 0 0 1 736.6867 209)" class="st2 st3">DE</text>
<text transform="matrix(1 0 0 1 834.7848 209)" class="st2 st3">FL</text>
<text transform="matrix(1 0 0 1 932.8829 209)" class="st2 st3">GA</text>
<text transform="matrix(1 0 0 1 1030.981 209)" class="st2 st3">HI</text>
<text transform="matrix(1 0 0 1 1129.0791 209)" class="st2 st3">ID</text>
<text transform="matrix(1 0 0 1 1227.1771 209)" class="st2 st3">IL</text>
<text transform="matrix(1 0 0 1 1325.2753 209)" class="st2 st3">IN</text>
<text transform="matrix(1 0 0 1 1423.3734 209)" class="st2 st3">IA</text>
<text transform="matrix(1 0 0 1 1521.4714 209)" class="st2 st3">KS</text>
<text transform="matrix(1 0 0 1 1619.5696 209)" class="st2 st3">KY</text>
<text transform="matrix(1 0 0 1 1717.6677 209)" class="st2 st3">LA</text>
<text transform="matrix(1 0 0 1 1815.7657 209)" class="st2 st3">ME</text>
<g>
	<rect x="1913.9" y="100" class="st0" width="93.2" height="85.2"/>
	<rect x="1913.9" y="185.2" class="st1" width="93.2" height="7.8"/>
	<text transform="matrix(1 0 0 1 1913.8639 209)" class="st2 st3">MD</text>
</g>
<text transform="matrix(1 0 0 1 2011.9619 209)" class="st2 st3">MA</text>
<text transform="matrix(1 0 0 1 2110.0601 209)" class="st2 st3">MI</text>
<text transform="matrix(1 0 0 1 2208.1582 209)" class="st2 st3">MN</text>
<text transform="matrix(1 0 0 1 2306.2563 209)" class="st2 st3">MS</text>
<text transform="matrix(1 0 0 1 2404.3542 209)" class="st2 st3">MO</text>
<text transform="matrix(1 0 0 1 2502.4524 209)" class="st2 st3">MT</text>
<text transform="matrix(1 0 0 1 2600.5505 209)" class="st2 st3">NE</text>
<text transform="matrix(1 0 0 1 2698.6487 209)" class="st2 st3">NV</text>
<text transform="matrix(1 0 0 1 2796.7468 209)" class="st2 st3">NH</text>
<text transform="matrix(1 0 0 1 2894.8447 209)" class="st2 st3">NJ</text>
<text transform="matrix(1 0 0 1 2992.9429 209)" class="st2 st3">NM</text>
<text transform="matrix(1 0 0 1 3091.041 209)" class="st2 st3">NY</text>
<text transform="matrix(1 0 0 1 3189.1392 209)" class="st2 st3">NC</text>
<text transform="matrix(1 0 0 1 3287.2373 209)" class="st2 st3">ND</text>
<text transform="matrix(1 0 0 1 3385.3354 209)" class="st2 st3">OH</text>
<text transform="matrix(1 0 0 1 3483.4333 209)" class="st2 st3">OK</text>
<text transform="matrix(1 0 0 1 3581.5315 209)" class="st2 st3">OR</text>
<text transform="matrix(1 0 0 1 3679.6296 209)" class="st2 st3">PA</text>
<text transform="matrix(1 0 0 1 3777.7278 209)" class="st2 st3">RI</text>
<text transform="matrix(1 0 0 1 3875.8259 209)" class="st2 st3">SC</text>
<text transform="matrix(1 0 0 1 3973.9238 209)" class="st2 st3">SD</text>
<text transform="matrix(1 0 0 1 4072.022 209)" class="st2 st3">TN</text>
<text transform="matrix(1 0 0 1 4170.1201 209)" class="st2 st3">TX</text>
<text transform="matrix(1 0 0 1 4268.2183 209)" class="st2 st3">UT</text>
<text transform="matrix(1 0 0 1 4366.3164 209)" class="st2 st3">VT</text>
<text transform="matrix(1 0 0 1 4464.4146 209)" class="st2 st3">VA</text>
<text transform="matrix(1 0 0 1 4562.5127 209)" class="st2 st3">WA</text>
<text transform="matrix(1 0 0 1 4660.6108 209)" class="st2 st3">WV</text>
<text transform="matrix(1 0 0 1 4758.7085 209)" class="st2 st3">WI</text>
<text transform="matrix(1 0 0 1 4856.8066 209)" class="st2 st3">WY</text>
</svg>
